<svg width="63" height="62" viewBox="0 0 63 62" fill="none" xmlns="http://www.w3.org/2000/svg">
<g filter="url(#filter0_i_2722_93)">
<g clip-path="url(#clip0_2722_93)">
<rect width="63" height="62" rx="31" fill="#3C3C3C" fill-opacity="0.65"/>
<g filter="url(#filter1_f_2722_93)">
<ellipse cx="31.9165" cy="74.4614" rx="18.9165" ry="17.4614" fill="white" fill-opacity="0.4"/>
</g>
<path d="M33.1665 42.6667H38.9998C39.6187 42.6667 40.2122 42.4208 40.6498 41.9832C41.0873 41.5457 41.3332 40.9522 41.3332 40.3333V26.3333C41.3341 25.9636 41.2618 25.5974 41.1204 25.2558C40.979 24.9142 40.7714 24.6039 40.5095 24.343L36.3235 20.157C36.0626 19.8951 35.7523 19.6875 35.4107 19.5461C35.0691 19.4047 34.7029 19.3324 34.3332 19.3333H24.9998C24.381 19.3333 23.7875 19.5792 23.3499 20.0167C22.9123 20.4543 22.6665 21.0478 22.6665 21.6667V25.5167" stroke="white" stroke-width="2" stroke-linecap="round" stroke-linejoin="round"/>
<path d="M34.3335 19.3333V25.1666C34.3335 25.4761 34.4564 25.7728 34.6752 25.9916C34.894 26.2104 35.1907 26.3333 35.5002 26.3333H41.3335" stroke="white" stroke-width="2" stroke-linecap="round" stroke-linejoin="round"/>
<path d="M26.9718 36.2255L28.4768 41.9189C28.5088 42.0273 28.5085 42.1427 28.4761 42.2509C28.4436 42.3592 28.3805 42.4557 28.2942 42.5288C28.2079 42.6018 28.1023 42.6482 27.9902 42.6623C27.878 42.6765 27.7642 42.6577 27.6625 42.6084L25.5123 41.6179C25.3526 41.5399 25.1772 41.4995 24.9995 41.4997C24.8217 41.4999 24.6464 41.5407 24.4868 41.619L22.3332 42.6107C22.2315 42.6583 22.1183 42.6756 22.0071 42.6604C21.8959 42.6453 21.7914 42.5984 21.7062 42.5254C21.621 42.4523 21.5586 42.3563 21.5266 42.2487C21.4946 42.1411 21.4944 42.0266 21.5258 41.9189L23.0308 36.2255" stroke="white" stroke-width="2" stroke-linecap="round" stroke-linejoin="round"/>
<path d="M25 36.8333C26.933 36.8333 28.5 35.2663 28.5 33.3333C28.5 31.4003 26.933 29.8333 25 29.8333C23.067 29.8333 21.5 31.4003 21.5 33.3333C21.5 35.2663 23.067 36.8333 25 36.8333Z" stroke="white" stroke-width="2" stroke-linecap="round" stroke-linejoin="round"/>
</g>
</g>
<defs>
<filter id="filter0_i_2722_93" x="0" y="0" width="63" height="66" filterUnits="userSpaceOnUse" color-interpolation-filters="sRGB">
<feFlood flood-opacity="0" result="BackgroundImageFix"/>
<feBlend mode="normal" in="SourceGraphic" in2="BackgroundImageFix" result="shape"/>
<feColorMatrix in="SourceAlpha" type="matrix" values="0 0 0 0 0 0 0 0 0 0 0 0 0 0 0 0 0 0 127 0" result="hardAlpha"/>
<feOffset dy="4"/>
<feGaussianBlur stdDeviation="4"/>
<feComposite in2="hardAlpha" operator="arithmetic" k2="-1" k3="1"/>
<feColorMatrix type="matrix" values="0 0 0 0 0.966346 0 0 0 0 0.969258 0 0 0 0 1 0 0 0 0.22 0"/>
<feBlend mode="normal" in2="shape" result="effect1_innerShadow_2722_93"/>
</filter>
<filter id="filter1_f_2722_93" x="-12.222" y="31.778" width="88.277" height="85.3667" filterUnits="userSpaceOnUse" color-interpolation-filters="sRGB">
<feFlood flood-opacity="0" result="BackgroundImageFix"/>
<feBlend mode="normal" in="SourceGraphic" in2="BackgroundImageFix" result="shape"/>
<feGaussianBlur stdDeviation="12.611" result="effect1_foregroundBlur_2722_93"/>
</filter>
<clipPath id="clip0_2722_93">
<rect width="63" height="62" rx="31" fill="white"/>
</clipPath>
</defs>
</svg>
